<?xml version="1.0" encoding="utf-8"?>
<!-- Generator: Adobe Illustrator 19.1.0, SVG Export Plug-In . SVG Version: 6.00 Build 0)  -->
<svg version="1.1" id="Layer_1" xmlns="http://www.w3.org/2000/svg" xmlns:xlink="http://www.w3.org/1999/xlink" x="0px" y="0px"
	 viewBox="-258 257.2 274.3 98.8" style="enable-background:new -258 257.2 274.3 98.8;" xml:space="preserve">
<style type="text/css">
	.st0{fill:#FFFFFF;}
</style>
<g>
	<g>
		<path class="st0" d="M-159,305.7h-7.2c-0.5-22.6-18.7-40.8-41.3-41.3v-7.1h-1.7v7.2c-22.5,0.4-40.8,18.6-41.2,41.2h-7.2v1.7h7.2
			c0.4,22.5,18.7,40.8,41.2,41.3v7.2h1.7v-7.2c22.6-0.5,40.8-18.8,41.3-41.3h7.2V305.7z M-211.6,307.4v0.5c0.2,0,0.4,0,0.7,0
			c0.3,0,0.6,0,0.7,0c0.4,0,0.7,0,1,0.1v16.5c-0.2,0-0.3,0-0.4,0c-2.5,0-4.5-0.6-5.9-1.9c-1.5-1.3-2.2-3-2.2-5.1v-0.4h-7.3
			c0.1,4.2,1.6,7.5,4.3,10s6.3,3.7,10.8,3.7c0.3,0,0.5,0,0.7,0v7.3c-16.6-0.4-30-13.9-30.5-30.5h28.1V307.4z M-207.5,308
			c1.8,0.3,3.3,0.9,4.3,1.9c1.6,1.4,2.4,3.5,2.4,6.3c0,2.6-0.8,4.7-2.3,6.1c-1.1,1-2.6,1.7-4.4,2V308z M-210.3,301.8
			c-0.1,0-0.4,0-0.7,0s-0.5,0-0.7,0v3.9h-28c0.4-16.6,13.9-30,30.5-30.5v7.2c-4.2,0.1-7.5,1.1-9.9,3.1c-2.5,2.1-3.8,5.2-4,9.1h6.8
			c0.1-2,0.7-3.5,2-4.6c1.2-1,2.9-1.6,5.1-1.6v13.3C-209.5,301.8-209.9,301.8-210.3,301.8z M-207.5,273.5
			c17.6,0.4,31.7,14.6,32.2,32.2h-1.7c-0.4-16.6-13.9-30-30.5-30.5V273.5z M-209.2,266.1v7.4c-17.6,0.4-31.7,14.6-32.2,32.2h-7.3
			C-248.3,284.1-230.8,266.6-209.2,266.1z M-248.7,307.4h7.4c0.4,17.6,14.6,31.7,32.2,32.2v7.4C-230.8,346.5-248.3,329-248.7,307.4z
			 M-207.5,347v-7.4c13.5-0.3,25-8.8,29.8-20.7l-1.5-0.7c-4.5,11.3-15.4,19.3-28.3,19.7v-7.4c3.8-0.3,6.9-1.5,9.3-3.5
			c2.9-2.4,4.3-5.7,4.3-9.8c0-1.9-0.3-3.6-0.8-5.1l-13.8-5.5v-4.4l0.2-0.4c1.7-0.2,3.1-0.8,4.1-1.6c1.4-1.2,2.1-2.9,2.1-5.1
			c0-2-0.6-3.6-1.9-4.8c-1-1-2.3-1.5-3.9-1.7v-6v-0.1c3.8,0.2,6.9,1.2,9.2,3.3c2.5,2.2,3.7,5.2,3.7,9c0,2.9-0.7,5.2-2.1,7
			c-1.4,1.8-3.4,2.9-5.9,3.3c2.9,0.5,5.2,1.8,6.7,3.9c0.7,0.9,1.2,1.9,1.5,3l15.6,6.2c1.4-3.4,2.1-7,2.2-10.8h1.7
			c-0.1,4-0.9,7.9-2.4,11.5l6.9,2.8C-176.7,336.2-190.8,346.6-207.5,347z"/>
	</g>
	<g>
		<g>
			<path class="st0" d="M-129.3,297.5v-8.8h-2v-1.9h2v-4.4h2.1v4.4h4.5v1.9h-4.5v8.5c0,1.8,1,2.4,2.4,2.4c0.7,0,1.3-0.1,2.1-0.5v1.9
				c-0.7,0.4-1.5,0.6-2.5,0.6C-127.6,301.6-129.3,300.5-129.3,297.5z"/>
			<path class="st0" d="M-118.5,286.8h2.1v3.8c1-2.4,3.1-4.2,5.8-4.1v2.3h-0.2c-3.1,0-5.6,2.3-5.6,6.7v5.8h-2.1V286.8z"/>
			<path class="st0" d="M-106.7,281.2h2.4v2.4h-2.4V281.2z M-106.6,286.8h2.1v14.6h-2.1V286.8z"/>
			<path class="st0" d="M-99,286.8h2.1v2.5c0.9-1.6,2.4-2.8,4.9-2.8c3.4,0,5.4,2.4,5.4,5.8v9h-2.1v-8.5c0-2.7-1.4-4.4-3.9-4.4
				c-2.4,0-4.2,1.8-4.2,4.6v8.3H-99V286.8z"/>
			<path class="st0" d="M-81.5,281.2h2.4v2.4h-2.4V281.2z M-81.4,286.8h2.1v14.6h-2.1V286.8z"/>
			<path class="st0" d="M-73.1,297.5v-8.8h-2v-1.9h2v-4.4h2.1v4.4h4.5v1.9H-71v8.5c0,1.8,1,2.4,2.4,2.4c0.7,0,1.3-0.1,2.1-0.5v1.9
				c-0.7,0.4-1.5,0.6-2.5,0.6C-71.4,301.6-73.1,300.5-73.1,297.5z"/>
			<path class="st0" d="M-63,305.3l0.7-1.7c0.7,0.4,1.3,0.5,2.2,0.5c1.3,0,2.1-0.7,2.9-2.7l-6.4-14.5h2.3l5.2,12.1l4.6-12.1h2.2
				l-6,15c-1.2,3-2.6,4.1-4.7,4.1C-61.2,306-62.1,305.7-63,305.3z"/>
			<path class="st0" d="M-130.6,312.2h4.2v2.1c1-1.3,2.2-2.4,4.3-2.4c3.2,0,5,2.1,5,5.6v9.8h-4.2v-8.4c0-2-0.9-3.1-2.5-3.1
				s-2.6,1-2.6,3.1v8.4h-4.2C-130.6,327.3-130.6,312.2-130.6,312.2z"/>
			<path class="st0" d="M-113.7,319.8L-113.7,319.8c0-4.4,3-7.9,7.3-7.9c4.9,0,7.2,3.9,7.2,8.2c0,0.3,0,0.7-0.1,1.1h-10.2
				c0.4,1.9,1.7,3,3.6,3c1.4,0,2.4-0.4,3.6-1.5l2.4,2.2c-1.4,1.7-3.3,2.8-6,2.8C-110.4,327.6-113.7,324.4-113.7,319.8z
				 M-103.3,318.5c-0.2-1.9-1.3-3.2-3.1-3.2c-1.7,0-2.9,1.3-3.2,3.2H-103.3z"/>
			<path class="st0" d="M-94.9,323v-7.2h-1.8v-3.6h1.8v-3.9h4.2v3.9h3.5v3.7h-3.5v6.5c0,1,0.4,1.5,1.3,1.5c0.8,0,1.5-0.2,2.1-0.5
				v3.4c-0.9,0.5-1.9,0.9-3.3,0.9C-93.2,327.5-94.9,326.5-94.9,323z"/>
			<path class="st0" d="M-84.9,312.2h4.2l2.4,9.2l2.8-9.2h3.6l2.8,9.2l2.4-9.2h4.1l-4.6,15.2H-71l-2.8-9.3l-2.9,9.3h-3.7
				L-84.9,312.2z"/>
			<path class="st0" d="M-60.9,319.8L-60.9,319.8c0-4.4,3.4-7.9,8-7.9s7.9,3.5,7.9,7.8v0.1c0,4.3-3.4,7.9-8,7.9
				C-57.5,327.6-60.9,324.1-60.9,319.8z M-49.1,319.8L-49.1,319.8c0-2.3-1.6-4.2-3.9-4.2c-2.4,0-3.8,1.9-3.8,4.1v0.1
				c0,2.2,1.6,4.2,3.9,4.2C-50.5,323.9-49.1,322-49.1,319.8z"/>
			<path class="st0" d="M-41.4,312.2h4.2v3c0.9-2.1,2.2-3.4,4.7-3.3v4.5h-0.2c-2.8,0-4.5,1.7-4.5,5.3v5.6h-4.2V312.2z"/>
			<path class="st0" d="M-29.4,306.7h4.2v11l4.9-5.5h5l-5.6,5.9l5.8,9.2h-4.8l-3.8-6.2l-1.5,1.6v4.6h-4.2L-29.4,306.7L-29.4,306.7z"
				/>
			<path class="st0" d="M-12.4,324.3h2.5v3h-2.5V324.3z"/>
			<path class="st0" d="M-6.3,323.4v-8.8h-2v-1.9h2v-4.4h2.1v4.4h4.5v1.9h-4.5v8.5c0,1.8,1,2.4,2.4,2.4c0.7,0,1.3-0.1,2.1-0.5v1.9
				c-0.7,0.4-1.5,0.6-2.6,0.6C-4.6,327.5-6.3,326.4-6.3,323.4z"/>
			<path class="st0" d="M1.9,312.7h2.3L9,324.8l4.8-12.1h2.3l-6.2,14.7H8L1.9,312.7z"/>
		</g>
	</g>
</g>
</svg>
