<?xml version="1.0" encoding="utf-8"?>
<!-- Generator: Adobe Illustrator 19.1.0, SVG Export Plug-In . SVG Version: 6.00 Build 0)  -->
<svg version="1.1" id="Layer_1" xmlns="http://www.w3.org/2000/svg" xmlns:xlink="http://www.w3.org/1999/xlink" x="0px" y="0px"
	 viewBox="-217 293 355.1 27" style="enable-background:new -217 293 355.1 27;" xml:space="preserve">
<style type="text/css">
	.st0{fill:#FFFFFF;}
	.st1{enable-background:new    ;}
</style>
<g id="Layer_2">
</g>
<g>
	<path class="st0" d="M102.1,316.1l-10.6-14l0,0c-0.1-0.1-0.1-0.2-0.1-0.4c0-0.3,0.3-0.5,0.6-0.5l16.6,1.6l4.6-8.1
		c0.1-0.2,0.4-0.3,0.6-0.2c0.1,0,0.2,0.1,0.3,0.2l0,0l4.6,8.1l16.6-1.6c0.3,0,0.5,0.2,0.6,0.5c0,0.1,0,0.3-0.1,0.4l0,0l-10.6,14.1
		h1.8l10-13.2c0,0,0,0,0-0.1c0.3-0.4,0.4-0.9,0.4-1.3c-0.1-1-0.9-1.8-2-1.8c-0.1,0-0.1,0-0.2,0l-15.7,1.5l-4.1-7.3
		c0-0.1-0.1-0.1-0.1-0.1c-0.3-0.4-0.7-0.7-1.1-0.8c-0.2-0.1-0.4-0.1-0.5-0.1c-0.7,0-1.4,0.4-1.7,1l-4.2,7.3l-15.7-1.5
		c-1.1-0.1-2,0.7-2.1,1.8c0,0.5,0.1,0.9,0.4,1.3l0,0l10,13.2H102.1z"/>
	<g>
		<polygon class="st0" points="124.1,315.9 114.8,308.5 134.1,302.7 		"/>
	</g>
	<g>
		<polygon class="st0" points="93.3,302.7 112.6,308.5 103.2,315.9 		"/>
	</g>
	<g>
		<polygon class="st0" points="113.7,309 122.7,316.1 104.6,316.1 		"/>
	</g>
	<g>
		<polygon class="st0" points="119.4,306.1 114.2,307.6 114.2,296.9 		"/>
	</g>
	<g>
		<polygon class="st0" points="113.2,296.9 113.2,307.6 107.9,306.1 		"/>
	</g>
</g>
<g class="st1">
	<path class="st0" d="M-216.8,303.7h1.2v2.7c1-1.6,2.6-3,5-3c2.9,0,5.9,2.3,5.9,6.3v0c0,3.9-3,6.3-5.9,6.3c-2.4,0-4-1.4-5-2.9v6.4
		h-1.2V303.7z M-206,309.8L-206,309.8c0-3.2-2.2-5.3-4.7-5.3c-2.5,0-4.9,2.1-4.9,5.2v0c0,3.1,2.4,5.2,4.9,5.2
		C-208.2,315-206,313.1-206,309.8z"/>
	<path class="st0" d="M-202,309.8L-202,309.8c0-3.4,2.6-6.4,6.2-6.4c3.6,0,6.2,2.9,6.2,6.3v0c0,3.4-2.6,6.3-6.2,6.3
		C-199.4,316.1-202,313.2-202,309.8z M-190.8,309.8L-190.8,309.8c0-3-2.2-5.3-5-5.3c-2.9,0-4.9,2.3-4.9,5.2v0c0,2.9,2.2,5.2,5,5.2
		C-192.9,315-190.8,312.7-190.8,309.8z"/>
	<path class="st0" d="M-187.7,303.7h1.3l3.6,10.6l3.6-10.7h0.9l3.6,10.7l3.6-10.6h1.3l-4.4,12.2h-1l-3.6-10.3l-3.6,10.3h-1
		L-187.7,303.7z"/>
	<path class="st0" d="M-167.6,309.8L-167.6,309.8c0-3.6,2.5-6.3,5.7-6.3c3.4,0,5.5,2.7,5.5,6.3c0,0.2,0,0.3,0,0.5h-10
		c0.2,3,2.4,4.8,4.7,4.8c1.9,0,3.1-0.8,4.1-1.9l0.8,0.7c-1.2,1.3-2.7,2.3-5,2.3C-164.9,316.1-167.6,313.6-167.6,309.8z
		 M-157.6,309.2c-0.2-2.4-1.6-4.7-4.3-4.7c-2.4,0-4.2,2-4.5,4.7H-157.6z"/>
	<path class="st0" d="M-153,303.7h1.2v3.4c0.9-2.2,3-3.7,5.4-3.6v1.3h-0.1c-2.8,0-5.2,2.1-5.2,6v4.9h-1.2V303.7z"/>
	<path class="st0" d="M-144.9,309.8L-144.9,309.8c0-3.6,2.5-6.3,5.7-6.3c3.4,0,5.5,2.7,5.5,6.3c0,0.2,0,0.3,0,0.5h-10
		c0.2,3,2.4,4.8,4.7,4.8c1.9,0,3.1-0.8,4.1-1.9l0.8,0.7c-1.2,1.3-2.7,2.3-5,2.3C-142.2,316.1-144.9,313.6-144.9,309.8z
		 M-134.9,309.2c-0.2-2.4-1.6-4.7-4.3-4.7c-2.4,0-4.2,2-4.5,4.7H-134.9z"/>
	<path class="st0" d="M-131.1,309.8L-131.1,309.8c0-4,3-6.4,5.9-6.4c2.4,0,4,1.4,5,2.9v-7.8h1.2v17.3h-1.2v-2.7c-1,1.6-2.6,3-5,3
		C-128.1,316.1-131.1,313.8-131.1,309.8z M-120.1,309.8L-120.1,309.8c0-3.1-2.4-5.2-4.9-5.2c-2.6,0-4.7,1.9-4.7,5.2v0
		c0,3.2,2.2,5.2,4.7,5.2C-122.6,315-120.1,312.9-120.1,309.8z"/>
	<path class="st0" d="M-106.4,313.2v2.6h-1.2v-17.3h1.2v7.9c1-1.6,2.6-3,5-3c2.9,0,5.9,2.3,5.9,6.3v0c0,3.9-3,6.3-5.9,6.3
		C-103.8,316.1-105.4,314.7-106.4,313.2z M-96.8,309.8L-96.8,309.8c0-3.2-2.2-5.3-4.7-5.3c-2.5,0-4.9,2.1-4.9,5.2v0
		c0,3.1,2.4,5.2,4.9,5.2C-98.9,315-96.8,313.1-96.8,309.8z"/>
	<path class="st0" d="M-93.4,319.2l0.4-1c0.6,0.3,1.2,0.5,2.1,0.5c1.3,0,2.1-0.7,3-2.8l-5.8-12h1.3l5,10.8l4.4-10.8h1.3l-5.2,12.5
		c-1.1,2.5-2.3,3.4-4,3.4C-92,319.7-92.6,319.5-93.4,319.2z"/>
</g>
<g class="st1">
	<path class="st0" d="M-67.6,301h-5.6v-1.7h13v1.7h-5.6v14.8h-1.9V301z"/>
	<path class="st0" d="M-56.5,299.2h1.9v16.6h-1.9V299.2z"/>
	<path class="st0" d="M-49.8,299.2h5.8c5.2,0,8.8,3.6,8.8,8.2v0c0,4.7-3.6,8.3-8.8,8.3h-5.8V299.2z M-44,314.1
		c4.2,0,6.9-2.8,6.9-6.5v0c0-3.7-2.7-6.6-6.9-6.6h-3.9v13.1H-44z"/>
	<path class="st0" d="M-26.2,299.1h1.8l7.6,16.7h-2l-1.9-4.4h-9l-2,4.4h-1.9L-26.2,299.1z M-21.6,309.8l-3.8-8.5l-3.8,8.5H-21.6z"/>
	<path class="st0" d="M-13.6,299.2h1.9v14.8h9.3v1.7h-11.2V299.2z"/>
	<path class="st0" d="M5.1,299.2H9l3.4,11.2l3.7-11.3h3.1l3.7,11.3l3.4-11.2h3.8l-5.7,16.7h-3.2l-3.7-10.8l-3.7,10.8h-3.2L5.1,299.2
		z"/>
	<path class="st0" d="M36.5,299.1h3.4l7.1,16.7h-3.8l-1.5-3.7h-7l-1.5,3.7h-3.7L36.5,299.1z M40.3,308.9l-2.2-5.4l-2.2,5.4H40.3z"/>
	<path class="st0" d="M45.7,299.2h4l4.3,11.7l4.3-11.7h3.9l-6.7,16.7h-3.2L45.7,299.2z"/>
	<path class="st0" d="M64.9,299.2h12.5v3.2h-8.9v3.4h7.8v3.2h-7.8v3.5h9v3.2H64.9V299.2z"/>
</g>
</svg>
